<svg xmlns="http://www.w3.org/2000/svg" viewBox="0 0 520 160" role="img" aria-labelledby="title desc">
	<title id="title">White Lake Area Christian Food Pantry logo</title>
	<desc id="desc">Green pantry basket icon beside the White Lake Pantry name.</desc>
	<rect width="520" height="160" rx="24" fill="#ffffff" />
	<rect x="24" y="24" width="112" height="112" rx="24" fill="#166534" />
	<path
		fill="#fefce8"
		d="M50 70c0-6 5-11 11-11h38c6 0 11 5 11 11v42H50V70Z"
	/>
	<path fill="#d97706" d="M46 82h68v18H46z" />
	<path
		fill="#fefce8"
		d="M61 52c0-12 10-22 22-22h14c12 0 22 10 22 22v16h-17V53c0-3-2-5-5-5H83c-3 0-5 2-5 5v15H61V52Z"
	/>
	<path
		fill="#bbf7d0"
		d="M79 106c-13-11-28-28-16-39 6-5 12-3 16 3 4-6 11-8 16-3 12 11-3 28-16 39Z"
	/>
	<text
		x="160"
		y="72"
		fill="#0f172a"
		font-family="Inter, Arial, sans-serif"
		font-size="36"
		font-weight="800"
	>White Lake Pantry</text>
	<text
		x="160"
		y="112"
		fill="#166534"
		font-family="Inter, Arial, sans-serif"
		font-size="22"
		font-weight="700"
	>Area Christian Food Pantry</text>
</svg>
