<svg xmlns="http://www.w3.org/2000/svg" viewBox="0 0 64 64" role="img" aria-labelledby="title">
	<title id="title">White Lake Food Pantry</title>
	<rect width="64" height="64" rx="14" fill="#166534" />
	<path
		fill="#fefce8"
		d="M16 25.5c0-2.5 2-4.5 4.5-4.5h23c2.5 0 4.5 2 4.5 4.5V47H16V25.5Z"
	/>
	<path fill="#d97706" d="M14 30h36v8H14z" />
	<path
		fill="#fefce8"
		d="M21 18c0-3.3 2.7-6 6-6h10c3.3 0 6 2.7 6 6v5h-6v-4.5c0-.8-.7-1.5-1.5-1.5h-7c-.8 0-1.5.7-1.5 1.5V23h-6v-5Z"
	/>
	<path
		fill="#bbf7d0"
		d="M31.8 42.5c-5-4.5-10-10.8-5.6-15 2.1-2 4.5-.8 5.8 1.1 1.3-1.9 3.8-3.1 5.8-1.1 4.3 4.2-1 10.5-6 15Z"
	/>
</svg>
